# xmcd CD database file
#
# Track frame offsets:
#	150
#	21630
#	34723
#	55402
#	72219
#	90870
#	105547
#	121219
#	137303
#	155561
#	177943
#	198223
#	216905
#	233832
#	251949
#	269682
#
# Disc length: 3834 seconds
#
# Revision: 0
# Processed by: cddbd v1.5.1PL2 Copyright (c) Steve Scherf et al.
# Submitted via: CDex 1.51
#
DISCID=e20ef810
DTITLE=オムニバス - Fine the ENKA show
DYEAR=2005
DGENRE=Other
TTITLE0=01-天城越え
TTITLE1=02-そして，神戸
TTITLE2=03-ラブ・イズ・オーバー
TTITLE3=04-北酒場
TTITLE4=05-時の流れに身をまかせ
TTITLE5=06-星降る街角
TTITLE6=07-雨の慕情
TTITLE7=08-3年目の浮気
TTITLE8=09-北国の春
TTITLE9=10-川の流れのように
TTITLE10=11-雪国
TTITLE11=12-圭子の夢は夜ひらく
TTITLE12=13-サチコ
TTITLE13=14-夫婦舟
TTITLE14=15-東京砂漠
TTITLE15=16-越冬つばめ
EXTD=YEAR: 2005
EXTT0=
EXTT1=
EXTT2=
EXTT3=
EXTT4=
EXTT5=
EXTT6=
EXTT7=
EXTT8=
EXTT9=
EXTT10=
EXTT11=
EXTT12=
EXTT13=
EXTT14=
EXTT15=
PLAYORDER=
